<svg width="15" height="4" fill="none" xmlns="http://www.w3.org/2000/svg"><path d="M.7 1.68c0-.47.15-.83.44-1.1.3-.28.68-.42 1.16-.42.51 0 .91.14 1.2.42.3.27.44.63.44 1.1 0 .47-.14.84-.44 1.12-.29.28-.69.42-1.2.42-.48 0-.86-.14-1.16-.42C.85 2.52.7 2.15.7 1.68Zm5.18 0c0-.47.15-.83.44-1.1C6.62.3 7 .16 7.48.16c.5 0 .9.14 1.2.42.3.27.44.63.44 1.1 0 .47-.15.84-.44 1.12-.3.28-.7.42-1.2.42-.48 0-.87-.14-1.16-.42-.3-.28-.44-.65-.44-1.12Zm5.17 0c0-.47.15-.83.44-1.1.3-.28.68-.42 1.16-.42.51 0 .91.14 1.2.42.3.27.44.63.44 1.1 0 .47-.14.84-.44 1.12-.29.28-.69.42-1.2.42-.48 0-.86-.14-1.16-.42-.29-.28-.44-.65-.44-1.12Z" fill="#fff"/></svg>